<?xml version="1.0" encoding="UTF-8"?>
<svg xmlns="http://www.w3.org/2000/svg" xmlns:xlink="http://www.w3.org/1999/xlink" viewBox="-20 -2 894 178">
  <defs>
    <linearGradient id="gradGray" x1="0" x2="0" y1="139.4" y2="6.28" gradientUnits="userSpaceOnUse">
      <stop offset="0" stop-color="#eeeeee"/>
      <stop offset=".08" stop-color="#d6d6d6"/>
      <stop offset=".42" stop-color="#b2b2b2"/>
      <stop offset=".67" stop-color="#969696"/>
      <stop offset=".81" stop-color="#7f7f7f"/>
    </linearGradient>
    <linearGradient id="gradOrange" x1="0" x2="0" y1="139.4" y2="6.28" gradientUnits="userSpaceOnUse">
      <stop offset="0" stop-color="#ffe43b"/>
      <stop offset=".08" stop-color="#edcf0f"/>
      <stop offset=".42" stop-color="#d4990d"/>
      <stop offset=".67" stop-color="#c4780d"/>
      <stop offset=".81" stop-color="#bf6c0d"/>
    </linearGradient>

    <filter id="innerGlowGray" x="-5%" y="-5%" width="110%" height="110%">
      <feComponentTransfer in="SourceAlpha" result="inverse"><feFuncA type="table" tableValues="1 0"/></feComponentTransfer>
      <feGaussianBlur in="inverse" stdDeviation="3" result="blurred"/>
      <feComposite in="blurred" in2="SourceAlpha" operator="in" result="innerShadow"/>
      <feFlood flood-color="#ffffff" flood-opacity="0.85" result="glowColor"/>
      <feComposite in="glowColor" in2="innerShadow" operator="in" result="coloredGlow"/>
      <feMerge><feMergeNode in="SourceGraphic"/><feMergeNode in="coloredGlow"/></feMerge>
    </filter>

    <filter id="innerGlowOrange" x="-5%" y="-5%" width="110%" height="110%">
      <feComponentTransfer in="SourceAlpha" result="inverse"><feFuncA type="table" tableValues="1 0"/></feComponentTransfer>
      <feGaussianBlur in="inverse" stdDeviation="3" result="blurred"/>
      <feComposite in="blurred" in2="SourceAlpha" operator="in" result="innerShadow"/>
      <feFlood flood-color="#fff6a0" flood-opacity="1" result="glowColor"/>
      <feComposite in="glowColor" in2="innerShadow" operator="in" result="coloredGlow"/>
      <feMerge><feMergeNode in="SourceGraphic"/><feMergeNode in="coloredGlow"/></feMerge>
    </filter>

    <clipPath id="orangeReveal" clipPathUnits="userSpaceOnUse">
      <rect class="rune-reveal" x="-30" y="160" width="924" height="220"/>
    </clipPath>

    <path id="lR" d="M83.44 125.64c-6.4 6.6-14.4 12-18.6 14.4-1.6-1.8-3.2-4-4.8-6-5.6-7.8-11.6-19.2-15.4-27.8-2.4-5.6-4.8-10.4-7-17.6-1 .4-5.4 2.6-6.4 3 0 7.8 0 15.6.2 23.2v8c0 3.8 0 8-.6 10.6-5 .6-11.8 1-17.2 1-2.4 0-4.6 0-6.2-.2.6-7.8 1.4-15.2 1.4-23.8 0-5.8.2-8.6.4-13.2v-29.4c-.2-12.8-1.4-25.6-1.6-38.4 0-1.8 0-3.8-.2-5.6-2.2 0-4.8-.2-7.4 0-.2-10.8.4-23 .4-23 2 .2 4.2 0 8.2 0 2.4 0 5.4 0 9.6.2 5.4.2 15.2 1.2 20.4 2.8 13.8 4.2 23 9 29.4 16.6 3.2 3.8 5.2 5.8 7.4 9.6 2.6 4.4 4.8 9.6 5 14.2.4 9.2-3.4 15.6-7.8 20.8-3.8 4.6-10.6 11-16.2 14 2.4 8.6 6.4 17.6 11.6 25.8 4.6 7 9 14.8 15.4 20.8m-52.8-101c.2 3.4.4 6.4.4 9.6 0 3.8-.2 8-.4 12 0 7.4 0 14.6.2 22 3.8-1.2 7.6-3.4 9.6-4.6 6.4-3.2 17.2-8.6 17.8-16.8.4-7.6-9.8-15.2-15.8-18.2-3.2-1.8-8.4-3.6-11.8-4"/>
    <path id="lu" d="M138.84 136.64c-3.2-4.2-4.2-10.4-5.2-15-6.6 5.6-16 11.6-25.2 12.2-5 .4-11.6-.4-15.2-4.6-6-7-5.2-23-5.2-33 0-3 .2-6.4.6-9.4.2-5.2.4-10.6.8-15.8.2-3.8 2.2-37.8 2.8-41.6.4-2.8.6-5.2 1.4-7.4 5.2.2 14.6 1 22 2.4-.4 1.8-.4 3.8-.8 5.8-4.2 24.6-5.2 49.6-5.2 74.4 0 1.4-.2 6.2 2.6 6.4 1 0 2.2-.6 3.4-1.4 1.8-1.2 2.8-2.4 3.8-3.2 5-4.2 6.8-6.8 11-10-.4-5.4-.8-9.6-.4-16.4 0-1 .2-4.6.2-9.2v-8.6c0-17 .2-29.2.2-41.4 4-1 13.4-3.4 22.2-4-1 56.4-1 57.8-1.2 59.8-.2 3.8-.2 7.4-.2 11.2 0 13.4 3 27.8 6.8 39.2-2.4 3.2-9.8 6.2-19.2 9.6"/>
    <path id="ln1" d="M204.04 121.84c-.6-1.4-2-5-4.8-12.8-1.8-4.4-5.2-12.4-9-19-1.2-2.2-3-4.6-4-6.6-.4 5.2-.6 10.4-.6 15.4 0 8.8.4 17 1 26.2 0 2.4.2 5.4.4 9-3.4.8-14.6 1.2-21 1.2.2-8 .6-16.2.6-24.2 0-11-.4-19-.6-30 0-9.6.2-19.2.2-28.8 0-4.8 0-17.6-.4-24 6.4-1.4 13-3 20.4-4.4 4 18 8.6 31.4 17.8 47.4 0-13.8-.6-27.8-1.4-42-.2-3.4-.2-8.2-.2-11.2 3.6-1.6 16.4-2.6 21.2-3.2-.2 19.4-.6 41.2-.6 63.2 0 18.6 1.8 31.4 3.8 49-7 2.8-16 4.4-19.6 5.2-.6-2-2.6-8.6-3.2-10.4"/>
    <path id="le" d="M288.44 127.24c-13 3.6-25.4 5.2-37.6 7.8-2.8.6-6.2 1.6-10.2 2.4-.4-3.2-.4-6.2-.4-9.4 0-2.4 0-4.8.2-7.2.4-11 .6-23 1.4-34 .2-3.4.4-9.2.4-16 0-4.2 0-9-.2-13.6 0-4-.2-2.6 0-7-2.6.8-5 1.4-7.4 2-1-7.2-3-15-2.4-22.6 4.8-1.2 8.2-2 12.6-3.4 6.6-1.4 13-3 19.6-4.4 8.2-2 21-4.2 29.8-6.2.8 4.8 2 12.6 2.4 22.2-2.8.4-5.6 1-8.2 1.6-9.8 2.2-15.2 3.2-26 5.8v3.8c0 9.2.2 11.4.2 20.6v3.4c3.4-.8 6.8-1.4 10.2-2.2 6.8-1.4 8.2-1.4 15.6-2.6.6 4.6 1.8 15.4 1.2 23-3.8.6-8.2.8-10.8 1.4-8.6 1.6-10.2 1.4-17.4 3.2-.2 4-.2 6.4-.2 9.2 0 1.8 0 3.8.2 6.6 7.4-1.8 13.8-2.8 20.6-4.4 8.2-2 6.8-1.8 14.4-3.4.2 5.2.6 13.2.4 21.4-3 .6-6.8 1.4-8.4 2"/>
    <path id="lG" d="M388.03 84.44c-.4 9.2-2.2 18.2-4.8 25-4.2 10.4-7.2 16.4-14.6 23.8-5 5-10.2 6.8-16.2 6.8-3.4 0-7.2-.6-11.2-1.6-13.4-3.2-22.6-13.6-30-28.4-4.6-8.8-7-20.2-7-29.2 0-2.6.2-5.2.6-7.4 1.4-7.6 5.6-22 8.6-28.4 7.2-15.2 10-19.4 20.6-31.6 3.6-4 8-6.2 13.6-9.4 5.8-3.4 10.8-4.6 17.4-3.8 3.4.4 9 6.6 9.8 8.4 3 5.4 2.8 13 3.2 20.8.2 6.2-.2 19.6-.2 21.2-2.8 1.2-8.6 3-14 3-3 0-8-.4-8-.4s1-12.2 1-20c0-2.8-.2-5.2-.8-6-1.2-2.4-5.2-.4-7.6 2.4-4.4 4.2-8.6 9.6-11 14.8-4.8 10.4-10 20.2-11.4 31.8-1.8 13 9.4 40.6 22.4 41.4 7 .6 10.8-3.6 14-12.2 1.2-3.4 2.8-9.4 3.4-14.2-3.4.8-5.2 1.6-7.8 2.4-2.8 1-5.4 2-7.8 3.2-2 .8-4.4 2-7 3-2.6-6-4.8-16.2-5.8-20.6 5.8-4 12.8-6.6 19.6-8.6 5-1.4 10.2-3.4 15.2-4.2 3.2-.6 10.4-2 14.2-2.4l1 7.8c.8 6.8.6 8.8.6 12.6"/>
    <path id="lo" d="M467.23 72.44c.2 10.2-1.2 20.4-2.8 26.8-1.4 5.6-3.2 10-6.2 14.8-2.8 5.2-6.6 9.4-11.2 13-4.6 3.8-9.4 5.2-14.6 5.2-2 0-4.2-.2-6.4-.6-19-3.8-30-23.4-30.6-42.4-.6-16.6 3.6-33.2 9.4-44.8 4.8-9.4 14.8-20.8 25.8-22.2 9-1.2 16.8 3.6 22.8 10 3.6 4 7.4 10.8 9.4 16.2 2.4 8.2 4 13.6 4.4 24m-22-1.4c0-2.2 0-4-1-8.2-1-5.4-6.4-20-14.4-15.2-6 3.8-9 13.8-10.6 20.2-1 3.8-1.6 9.8-1.6 15.6 0 5.2.6 10.4 1.8 13.8 1.6 4.6 7.6 14.8 13.6 12.4 6.2-2.4 8.8-12.4 10.4-17.8 1.2-4.4 1.8-16.4 1.8-20.8"/>
    <path id="lb" d="M529.63 126.84c-8 6.8-18.4 10.4-29.2 10.4-3.6 0-7-.4-10.6-1.2-5.4-1.4-10.8-1.6-16.2-4.2 0-2.6 1-7 1.4-9.8 2.4-13 2.2-26.4 2.6-40.2.2-6.2.4-13.8.4-21.4 0-5.4 0-11-.4-15.4-.2-3 0-1.4-.2-4.4-2.2 0-4.4.4-7 .6 0-7 .6-18.8 1-22.2 2-.2 6.4-.8 7.8-.8 3.4.2 6.2 0 9.2 0 2.8 0 5.4.2 8.8.6 8 1.4 18.4 4 25.2 7.6 8.8 4.8 18 12 18 23.8 0 3-.4 6-1.6 9.2-2.6 7-6.2 13.6-15.4 24.4l6.6 3.2c7.6 3.2 12.2 8.6 13.6 17.8.8 8.4-7.6 16.8-14 22m-10-22.2c-1.4-1.6-4-2.4-6-3-3.4-.6-6.4-.6-10.2-.6h-6.4c.2 0-1.2 13.6-1.4 14.6 2.8 2 8.6 1.2 11.8.2 3.8-1 8.6-2.6 11.6-5 1.6-1.4 2.6-4.8.6-6.2m-21.6-32.2c0 2 0 3.8.2 6 3.4-1.4 7-2.8 9.6-5.8 2.4-2.4 4.4-4.6 7.8-10.4 1.4-2.2 3-7.6 2.8-10.4-.2-2.2-2.6-4.4-4.4-5.6-3.8-2.6-11-4-15.6-4.6-.2 3-.4 6-.2 9v10.2c0 3.8-.2 7.8-.2 11.6"/>
    <path id="ll" d="M608.03 124.24c-8 2.8-13.6 5.2-23.2 7.4-5.6 1.4-11.6 2.2-17.4 3.4-3.8.8-8.6 1.2-12.6 1.6-1-6-1.8-11.4-2-18-.2-4.4-.2-8.6-.2-12.8 0-8.6.2-17.2.2-25.8 0-10 .2-10 .4-20.2 0-6 .2-29.8 1.2-37.4 4.8-1 12.8-2.6 22.8-2.8-.4 3.2-1 14.2-1.2 17.2-1.2 17.4-2.2 34.6-2.2 52 0 7.6.2 15.2.6 22.6 10.4-1 14.8-3.4 24.6-6.8 1.2-.4 2.6-1 4-1.6 2.4 7 3.8 13.4 5 21.2"/>
    <path id="li" d="M638.63 128.44c-7.6 2-17 3.4-21.6 4-.2-3.2.2-7 .2-10q.6-18 .6-36v-62.6c4.6-1 12-2.4 19.8-3.4 0 7-.2 10.4-.2 15.4 0 13.2.4 25.8.4 39.2v6.8c0 15.6.8 31.2.8 46.6"/>
    <path id="ln2" d="M689.43 121.84c-.6-1.4-2-5-4.8-12.8-1.8-4.4-5.2-12.4-9-19-1.2-2.2-3-4.6-4-6.6-.4 5.2-.6 10.4-.6 15.4 0 8.8.4 17 1 26.2 0 2.4.2 5.4.4 9-3.4.8-14.6 1.2-21 1.2.2-8 .6-16.2.6-24.2 0-11-.4-19-.6-30 0-9.6.2-19.2.2-28.8 0-4.8 0-17.6-.4-24 6.4-1.4 13-3 20.4-4.4 4 18 8.6 31.4 17.8 47.4 0-13.8-.6-27.8-1.4-42-.2-3.4-.2-8.2-.2-11.2 3.6-1.6 16.4-2.6 21.2-3.2-.2 19.4-.6 41.2-.6 63.2 0 18.6 1.8 31.4 3.8 49-7 2.8-16 4.4-19.6 5.2-.6-2-2.6-8.6-3.2-10.4"/>
  </defs>

  <g transform="scale(1.2)">
    <g fill="none" stroke="#1a1008" stroke-width="16" stroke-linejoin="round" stroke-linecap="round">
      <use href="#lR"/><use href="#lu"/><use href="#ln1"/><use href="#le"/><use href="#lG"/><use href="#lo"/><use href="#lb"/><use href="#ll"/><use href="#li"/><use href="#ln2"/>
    </g>
    <g class="rune-gray" filter="url(#innerGlowGray)" fill="url(#gradGray)">
      <use href="#lR"/><use href="#lu"/><use href="#ln1"/><use href="#le"/><use href="#lG"/><use href="#lo"/><use href="#lb"/><use href="#ll"/><use href="#li"/><use href="#ln2"/>
    </g>
    <g class="rune-orange" filter="url(#innerGlowOrange)" fill="url(#gradOrange)" clip-path="url(#orangeReveal)">
      <use href="#lR"/><use href="#lu"/><use href="#ln1"/><use href="#le"/><use href="#lG"/><use href="#lo"/><use href="#lb"/><use href="#ll"/><use href="#li"/><use href="#ln2"/>
    </g>
  </g>
</svg>
